<?xml version="1.0" encoding="UTF-8" standalone="no"?>
<!-- Created with Inkscape (http://www.inkscape.org/) -->

<svg
   width="169.54497mm"
   height="280.27701mm"
   viewBox="0 0 169.54497 280.27701"
   version="1.1"
   id="svg5"
   inkscape:version="1.1.2 (b8e25be8, 2022-02-05)"
   sodipodi:docname="cleanroom_guy2.svg"
   xmlns:inkscape="http://www.inkscape.org/namespaces/inkscape"
   xmlns:sodipodi="http://sodipodi.sourceforge.net/DTD/sodipodi-0.dtd"
   xmlns="http://www.w3.org/2000/svg"
   xmlns:svg="http://www.w3.org/2000/svg">
  <sodipodi:namedview
     id="namedview7"
     pagecolor="#ffffff"
     bordercolor="#666666"
     borderopacity="1.0"
     inkscape:pageshadow="2"
     inkscape:pageopacity="0.0"
     inkscape:pagecheckerboard="0"
     inkscape:document-units="mm"
     showgrid="false"
     inkscape:zoom="0.55856481"
     inkscape:cx="368.80232"
     inkscape:cy="616.75922"
     inkscape:window-width="1312"
     inkscape:window-height="855"
     inkscape:window-x="119"
     inkscape:window-y="23"
     inkscape:window-maximized="0"
     inkscape:current-layer="layer1" />
  <defs
     id="defs2" />
  <g
     inkscape:label="Layer 1"
     inkscape:groupmode="layer"
     id="layer1"
     transform="translate(-17.963021,-7.2041471)">
    <g
       id="g1384"
       transform="translate(-28.132823,-79.95625)">
      <path
         style="fill:#1f1f1f;stroke-width:0.352778"
         d="m 101.30556,367.03203 c -11.849746,-1.33856 -16.331953,-3.49583 -18.886392,-9.08997 -1.271852,-2.78532 -1.690906,-9.146 -1.247881,-18.94125 0.179938,-3.97846 0.287934,-7.27279 0.239991,-7.32073 -0.04795,-0.0479 -1.416851,-0.33941 -3.042013,-0.6477 -4.340592,-0.82339 -5.31617,-1.44374 -6.168224,-3.92219 -0.43277,-1.25885 -0.515754,-1.30983 -2.340828,-1.43798 -8.638416,-0.60657 -14.824903,-4.4779 -18.190781,-11.3833 -2.786845,-5.71746 -3.471872,-10.2594 -3.164261,-20.98 0.30897,-10.76798 1.697274,-21.93812 3.777742,-30.39526 3.633949,-14.77211 9.752442,-25.91745 19.928976,-36.3023 1.643465,-1.6771 2.988119,-3.13152 2.988119,-3.23202 0,-0.10051 -1.33394,-1.58448 -2.96431,-3.29772 -4.99819,-5.25225 -8.266489,-10.82794 -10.738728,-18.3202 -2.009079,-6.08862 -2.535519,-9.38801 -2.767841,-17.34708 l -0.212877,-7.29291 -2.329504,-0.40566 c -4.144754,-0.72178 -7.219367,-2.73734 -9.15079,-5.99879 -0.86511,-1.46085 -0.940114,-1.8971 -0.940114,-5.46806 0,-3.58489 0.07665,-4.02616 1.005995,-5.79167 1.371279,-2.60505 4.069676,-5.36784 6.308622,-6.45916 1.663633,-0.8109 5.056219,-1.53463 8.317639,-1.77439 l 1.168368,-0.0859 0.163244,-3.88055 c 0.08979,-2.13431 0.329008,-5.38868 0.531605,-7.23195 2.298015,-20.90777 13.473669,-36.97856 31.742931,-45.646907 10.039932,-4.763723 19.622812,-6.801791 33.675972,-7.16215 12.02873,-0.308448 19.31986,0.627786 28.35402,3.640846 8.95705,2.987347 16.50618,7.468598 22.26528,13.216931 9.244,9.22671 13.77961,19.30487 14.63251,32.51353 0.24141,3.7386 0.25871,3.7972 1.18106,3.99954 5.5136,1.20955 8.89599,2.97966 12.40135,6.49 5.76091,5.7691 7.81567,11.76713 7.79623,22.75793 -0.0252,14.26438 -2.83997,22.85096 -9.60697,29.3068 -1.23541,1.1786 -2.96949,2.56471 -3.85352,3.08026 -1.42049,0.82839 -1.66176,1.1534 -2.07562,2.79598 -1.7549,6.96518 -4.73777,11.9948 -10.84115,18.28003 -2.1982,2.26371 -3.99674,4.22094 -3.99674,4.34941 0,0.12847 1.32599,1.8698 2.94666,3.86962 6.83357,8.43233 10.97344,15.99228 14.51832,26.51234 3.56272,10.57303 5.68581,21.22338 6.59285,33.07279 1.09137,14.25752 -2.19912,22.51558 -10.71887,26.90083 l -2.57925,1.32757 0.12271,2.91021 c 0.13925,3.30251 -0.15964,4.13122 -1.79498,4.97688 -1.74143,0.90053 -6.55282,2.45253 -9.73388,3.13984 l -2.88133,0.62255 0.003,4.44688 0.003,4.44689 2.12648,1.37011 c 2.53249,1.63169 4.24827,3.54887 5.55221,6.20388 0.83882,1.70795 0.95798,2.36853 0.95649,5.3024 -0.001,2.98048 -0.1102,3.5577 -0.98218,5.21552 -1.18478,2.25253 -3.23568,4.37093 -5.20364,5.37491 -6.7051,3.42068 -26.99203,3.69993 -35.55292,0.48938 -5.0115,-1.87944 -7.96997,-5.13938 -9.19341,-10.13021 -0.56434,-2.30137 -1.08331,-9.32772 -1.09304,-14.79613 l -0.008,-4.49791 h -3.12177 c -1.71698,0 -4.33635,0.10267 -5.82083,0.22815 l -2.69906,0.22815 v 3.5832 3.5832 l 1.25704,1.21573 c 3.19065,3.08577 5.29729,7.87277 4.98931,11.33741 -0.33535,3.77257 -2.8815,7.97779 -6.13527,10.13299 -3.24144,2.14704 -5.43097,2.57939 -13.69302,2.70387 -4.79363,0.0722 -8.96471,-0.0642 -11.81806,-0.38652 z m 20.05365,-5.62117 c 3.67225,-1.15667 6.75143,-5.29211 6.25448,-8.39996 -0.36089,-2.25686 -1.54286,-4.18428 -3.97711,-6.48536 l -2.29325,-2.16781 v -4.76269 -4.76269 l -4.28624,-0.22678 c -14.79128,-0.78258 -26.738509,-1.66813 -29.191736,-2.16375 -0.914693,-0.1848 -0.917067,-0.17911 -1.144411,2.74151 -0.36607,4.70278 -0.266298,17.37252 0.152174,19.32378 0.878004,4.09401 3.798687,5.63238 13.021334,6.8586 6.013919,0.79959 6.685769,0.83635 13.405559,0.73353 4.59064,-0.0702 6.65709,-0.24675 8.0592,-0.68838 z m 55.0852,-1.46043 c 4.01764,-0.59942 6.1619,-1.60998 7.52184,-3.54495 1.29151,-1.8376 1.54813,-3.78565 0.79672,-6.04794 -0.71491,-2.15239 -2.28686,-3.83038 -5.01776,-5.35622 -3.48884,-1.94933 -3.29799,-1.50474 -3.29799,-7.68255 v -5.44439 l -1.32292,0.2049 c -4.71254,0.72987 -17.03802,1.75848 -25.90503,2.16188 -4.29267,0.19529 -5.21665,0.33286 -5.3973,0.80363 -0.38728,1.00923 0.14083,13.91238 0.66927,16.35216 1.34996,6.23266 4.27539,8.00643 15.02265,9.10864 3.77872,0.38753 12.537,0.10035 16.93052,-0.55516 z m -34.60473,-31.03039 c 0.41795,-0.14986 0.45821,-2.57498 0.26196,-15.77827 -0.12755,-8.58066 -0.37773,-18.06182 -0.55596,-21.06925 -0.17823,-3.00743 -0.5227,-9.71798 -0.76548,-14.91233 l -0.44142,-9.44427 -5.67008,-3.40009 c -12.86579,-7.715 -21.23485,-13.23346 -22.23514,-14.66158 -0.72527,-1.03546 -0.68373,-3.85713 0.11708,-7.9536 0.35223,-1.80183 0.54587,-3.3344 0.43031,-3.40572 -0.11556,-0.0713 -1.71824,-0.38862 -3.5615,-0.7051 -11.975224,-2.05609 -21.573798,-5.31711 -27.516664,-9.3485 -0.873125,-0.5923 -1.789663,-1.07758 -2.036748,-1.07841 -0.656919,-0.002 -6.171604,5.39552 -8.648583,8.46516 -9.197068,11.39762 -14.028783,24.46418 -16.436597,44.44999 -0.385699,3.20146 -0.800573,6.97084 -0.921939,8.3764 -0.264216,3.0599 -0.486089,2.89313 5.289702,3.97599 8.166381,1.53106 21.728061,2.51153 25.752776,1.86186 l 1.763888,-0.28473 0.08724,-1.5849 c 0.597027,-10.847 2.225121,-29.28522 2.803292,-31.74739 0.327396,-1.39422 1.090408,-2.71757 1.702255,-2.95236 0.764067,-0.2932 2.852893,0.62226 3.29202,1.44278 0.246412,0.46042 0.206043,1.81525 -0.130418,4.37707 -0.821549,6.2553 -1.525221,14.17474 -2.096128,23.59084 -1.309158,21.59213 -1.482478,22.81455 -3.951404,27.86944 -1.775389,3.63495 -5.353621,7.21852 -8.843616,8.85682 -1.402856,0.65854 -2.553794,1.29661 -2.557639,1.41793 -0.01944,0.61333 15.070352,2.43495 26.098573,3.15058 11.80265,0.76589 37.11039,1.08681 38.77022,0.49164 z m 16.96865,-0.69947 c 14.64366,-1.03238 25.9717,-2.75171 31.16967,-4.73083 l 1.00716,-0.38347 -0.23161,-3.25785 c -1.8767,-26.39697 -4.28242,-45.93645 -7.25771,-58.94781 -1.61865,-7.07856 -1.66333,-7.75935 -0.58027,-8.8424 1.17002,-1.17002 2.83402,-1.22339 3.5596,-0.11416 1.49174,2.28046 4.04844,15.72414 6.75035,35.49482 l 0.21046,1.53996 1.35545,-0.21675 c 2.81967,-0.45088 7.71272,-1.69176 8.25273,-2.0929 0.51255,-0.38073 0.51403,-0.74372 0.0167,-4.12166 -2.21142,-15.01985 -6.96517,-29.55193 -12.91478,-39.48009 -3.13771,-5.2359 -8.59274,-12.02547 -9.66178,-12.02547 -0.26303,0 -1.30681,0.48854 -2.3195,1.08565 -4.07636,2.4035 -10.5396,4.61591 -16.98705,5.81477 l -3.45142,0.64177 -3.21826,6.19488 c -1.77004,3.40718 -4.78097,9.09416 -6.69094,12.63772 -1.90997,3.54357 -3.47268,6.66565 -3.47268,6.93796 0,0.27232 0.19844,0.56176 0.44098,0.64322 0.93463,0.31388 14.21109,-11.63766 20.87109,-18.78828 5.07708,-5.4511 4.68492,-5.11363 5.32503,-4.58238 1.01672,0.8438 1.66018,2.48595 1.43805,3.67001 -0.1158,0.61725 -1.06741,2.13668 -2.12737,3.39673 -2.04329,2.42902 -13.92498,13.47888 -20.65611,19.20998 -2.23132,1.89981 -4.18503,3.56783 -4.34158,3.7067 -0.15656,0.13887 0.0334,4.12491 0.42217,8.85785 1.37336,16.72067 1.79193,25.52107 1.79776,37.79772 l 0.005,10.49514 1.85209,-0.003 c 1.01864,-0.002 5.2652,-0.24368 9.4368,-0.53778 z m 5.87559,-33.82065 c -2.77157,-1.02858 -3.90425,-3.21189 -2.38132,-4.59013 0.59816,-0.54132 0.90969,-0.56143 2.83375,-0.1829 6.23605,1.22687 10.37446,-1.32608 10.8618,-6.70056 0.21487,-2.36963 -0.51594,-12.40848 -0.93433,-12.8344 -0.15384,-0.15661 -3.65255,-0.003 -7.77493,0.34176 -7.35044,0.61441 -7.50473,0.6135 -7.98789,-0.0473 -0.52278,-0.71496 -0.63531,-1.87338 -0.27353,-2.81616 0.42644,-1.11126 2.25747,-1.62513 7.63374,-2.14234 11.47066,-1.10351 12.46183,-0.71815 13.32213,5.17947 0.20791,1.42533 0.44688,3.06776 0.53103,3.64984 0.0841,0.58208 0.25276,2.80458 0.37468,4.93889 0.33132,5.80001 -0.59333,9.23124 -3.29288,12.21931 -2.1276,2.35501 -4.28015,3.24015 -8.20451,3.37375 -2.28719,0.0779 -3.78208,-0.0457 -4.70775,-0.38927 z m -87.682713,24.5785 c 3.064316,-1.50856 5.440514,-3.91325 6.901211,-6.98397 1.326371,-2.78833 2.233761,-6.91722 2.233577,-10.16339 l -1.23e-4,-2.17382 -7.849182,-0.0367 c -8.142742,-0.0381 -13.652072,-0.557 -20.184154,-1.90103 -4.966776,-1.02195 -4.563364,-1.27951 -4.317485,2.75642 0.565803,9.28723 3.575837,15.17788 9.219399,18.0424 3.06681,1.55663 4.035125,1.75417 8.15904,1.66444 3.193605,-0.0695 3.777008,-0.18984 5.837717,-1.20432 z M 197.9969,312.16144 c 4.08324,-2.62021 6.04316,-7.44433 6.10717,-15.03214 0.0199,-2.3605 -0.0609,-4.38902 -0.1795,-4.50782 -0.11863,-0.11881 -2.02363,0.19306 -4.23333,0.69304 -2.2097,0.49997 -4.39616,0.98906 -4.85881,1.08687 -0.79955,0.16902 -0.83056,0.2773 -0.62646,2.18767 0.11809,1.10541 0.48714,5.30391 0.8201,9.32998 0.33826,4.09027 0.75671,7.32014 0.94835,7.32014 0.18863,0 1.09875,-0.48498 2.02248,-1.07774 z M 140.95248,260.8641 c 0.31336,-0.47825 0.56974,-1.01659 0.56974,-1.19633 0,-0.6002 -13.96903,-18.67494 -15.22369,-19.69816 -0.48647,-0.39673 -1.75077,-0.6049 -6.17047,-1.01596 -2.27007,-0.21114 -2.54014,-0.16891 -2.7176,0.42486 -0.40004,1.33844 -1.33766,6.90107 -1.18839,7.05033 1.05654,1.05654 6.80161,4.96224 12.60015,8.56601 3.97757,2.47205 8.0257,4.98852 8.99583,5.59216 2.16576,1.34758 2.41839,1.36991 3.13443,0.27709 z m 4.88138,-26.63878 c 13.49898,-0.74226 21.48042,-2.51017 29.55503,-6.54651 7.78853,-3.89333 16.97561,-14.19756 18.49329,-20.74208 0.20089,-0.86628 0.14319,-0.97025 -0.43637,-0.78631 -4.02691,1.27809 -13.39202,1.6422 -17.9616,0.69832 -8.71686,-1.80051 -14.04783,-5.76927 -18.5931,-13.84203 -2.78743,-4.9507 -3.85616,-6.06196 -5.82991,-6.06196 -1.71848,0 -3.08303,1.45234 -5.30565,5.64701 -1.98236,3.74126 -6.35284,8.29057 -10.30081,10.72234 -5.6079,3.45419 -12.77323,5.28245 -20.56723,5.24778 -10.13373,-0.0451 -18.634963,-2.64654 -24.405596,-7.46836 -5.110053,-4.26986 -9.045014,-11.42592 -10.499756,-19.0947 -0.306956,-1.61814 -0.631804,-3.01577 -0.721886,-3.10585 -0.28732,-0.28732 -14.28086,-1.19976 -14.879132,-0.97018 -0.93098,0.35725 -0.442676,11.82702 0.714509,16.78307 2.268421,9.71531 6.345477,17.06423 13.078622,23.57429 3.911973,3.78237 6.50616,5.5731 11.616724,8.01889 12.592105,6.02627 34.429155,9.11473 56.042865,7.92628 z m -5.13269,-19.75338 c -1.81836,-0.35165 -2.84784,-1.43842 -2.84784,-3.00634 0,-2.42941 0.11509,-2.45721 10.36971,-2.50452 8.31422,-0.0384 9.25312,0.0174 10.22294,0.6072 0.85235,0.51834 1.06792,0.89182 1.06792,1.85025 0,1.59146 -0.9193,2.65184 -2.64584,3.05188 -1.65008,0.38232 -14.19168,0.3835 -16.16688,0.001 z m -15.86713,-11.98608 c 8.0317,-2.26613 13.67008,-6.72307 17.30962,-13.68266 2.09411,-4.0044 4.08671,-6.17942 6.37565,-6.95934 4.29398,-1.4631 8.08795,0.18736 10.73882,4.67163 0.65571,1.10922 1.89431,3.20738 2.75246,4.66259 3.19873,5.42434 7.93626,8.86857 14.61303,10.62384 5.64224,1.4833 13.61045,0.88004 19.02343,-1.44023 3.96875,-1.70121 9.20358,-6.42304 11.20954,-10.11102 3.90142,-7.17285 5.32033,-22.30243 2.88883,-30.80284 -1.05418,-3.68534 -2.64751,-6.42624 -5.29204,-9.10359 -4.74433,-4.80319 -7.96282,-5.69824 -21.83254,-6.07155 -12.02805,-0.32374 -46.79189,-0.32776 -65.26389,-0.008 -12.85059,0.22277 -14.36322,0.31216 -16.93333,1.00073 -8.298432,2.22327 -13.103191,7.02228 -15.415346,15.39692 -0.687267,2.48929 -0.777212,3.65455 -0.76243,9.87778 0.01499,6.3191 0.113005,7.47196 0.938844,11.04497 0.507146,2.19419 1.477013,5.13106 2.155257,6.52639 2.402554,4.94271 6.408677,9.2902 10.726027,11.63999 2.100448,1.14321 6.986898,2.55978 11.177088,3.24022 4.39522,0.71373 12.16067,0.46156 15.59098,-0.50629 z m -3.969,-16.18427 c -1.8534,-0.87064 -3.82884,-3.20075 -4.81445,-5.67886 -1.14426,-2.87699 -1.11519,-9.17375 0.0562,-12.17018 1.44354,-3.69261 4.80299,-6.55503 7.69324,-6.55503 1.93049,0 4.88251,1.57717 6.10138,3.25976 3.77356,5.20925 3.52758,15.08139 -0.47989,19.25993 -1.54792,1.61399 -2.70264,2.15185 -5.08835,2.37011 -1.55843,0.14258 -2.37363,0.0284 -3.46812,-0.48573 z m 50.43174,-0.85615 c -1.45175,-0.97772 -1.88503,-1.56205 -2.94277,-3.96875 -1.20832,-2.74933 -1.24055,-2.94068 -1.2476,-7.40834 -0.007,-4.2958 0.0554,-4.72003 0.983,-6.70173 0.54464,-1.1636 1.33826,-2.4943 1.76361,-2.95711 0.93592,-1.01834 3.98086,-2.50378 5.14216,-2.50854 3.1255,-0.0128 6.48545,2.64593 7.77811,6.15485 1.65795,4.50051 1.3039,10.65301 -0.83534,14.5164 -1.48538,2.68255 -3.78148,4.01975 -6.90226,4.01975 -1.71321,0 -2.30677,-0.18202 -3.73891,-1.14653 z M 79.196423,168.48988 c 0.123881,-2.58309 0.480152,-5.92914 0.791707,-7.43567 0.311556,-1.50653 0.512622,-2.79075 0.446811,-2.85384 -0.209663,-0.20099 -9.782647,-0.86219 -16.05765,-1.10909 -7.291902,-0.28692 -8.728169,-0.004 -10.868602,2.1395 -1.579284,1.58168 -2.297568,3.45188 -2.297568,5.9822 0,3.13103 1.726621,5.43956 4.658995,6.22917 1.690133,0.4551 15.634073,1.63666 20.068951,1.70057 l 3.032114,0.0437 z m 5.352196,-18.62955 c 2.897734,-4.39443 7.678116,-7.73426 13.123163,-9.16853 4.439068,-1.1693 11.437308,-1.32299 52.209708,-1.14659 l 38.16899,0.16513 -0.28957,-1.00966 c -0.4689,-1.635 -1.39195,-3.23276 -3.92225,-6.78927 -3.07149,-4.31718 -6.73241,-7.76111 -8.25014,-7.76111 -0.33865,0 -1.46775,0.7594 -2.50911,1.68755 -5.37636,4.79187 -15.39914,8.65514 -26.4419,10.192 -5.10587,0.7106 -17.67506,0.80808 -22.93056,0.17784 -13.28324,-1.59293 -26.600456,-6.71367 -32.696589,-12.57249 -0.71465,-0.68683 -1.34965,-1.24882 -1.411111,-1.24885 -0.06146,-4e-5 -0.111743,1.62715 -0.111743,3.61597 0,7.7627 -3.529446,16.43893 -9.084027,22.33072 -1.503715,1.59501 -2.734027,2.986 -2.734027,3.0911 0,0.32593 1.147162,0.51247 3.351388,0.54495 l 2.116667,0.0312 1.411111,-2.13995 z"
         id="path1196" />
    </g>
  </g>
</svg>
